<svg xmlns="http://www.w3.org/2000/svg" viewBox="0 0 1000 660" width="2000" height="1320" role="img" font-family="Segoe UI, Roboto, system-ui, sans-serif">
  <title>codescan architecture</title>
  <desc>Bitbucket, Snyk, Xray and a built-in multi-pass OpenHack whitebox engine feed a pipeline that ingests, deduplicates (deterministic then AI/Haiku), enriches with KEV/EPSS/reachability, runs AI exploitability and attack-chain analysis (Opus/Fable), scores, and assigns validation states, then exports to ServiceNow VR and a web UI, with a persistent state store feeding back. AI stages run concurrently and can auto-route their model tier by difficulty.</desc>

  <rect x="0" y="0" width="1000" height="660" fill="#ffffff"/>

  <!-- title -->
  <text x="40" y="42" font-size="22" font-weight="700" fill="#0f172a">codescan — architecture</text>
  <text x="40" y="64" font-size="13" fill="#64748b">Scanner aggregation → AI exploitability &amp; vulnerability chaining → ServiceNow Vulnerability Response</text>

  <!-- SOURCES -->
  <text x="40" y="94" font-size="11" font-weight="700" letter-spacing="1" fill="#94a3b8">SOURCES</text>
  <g font-size="14" font-weight="600" fill="#0f172a">
    <rect x="48" y="100" width="200" height="52" rx="8" fill="#f1f5f9" stroke="#475569"/>
    <text x="148" y="126" text-anchor="middle">SCM source</text>
    <text x="148" y="143" text-anchor="middle" font-size="11" font-weight="400" fill="#64748b">Bitbucket / GitHub</text>

    <rect x="288" y="100" width="150" height="52" rx="8" fill="#f1f5f9" stroke="#475569"/>
    <text x="363" y="126" text-anchor="middle">Snyk</text>
    <text x="363" y="143" text-anchor="middle" font-size="11" font-weight="400" fill="#64748b">SCA / SAST</text>

    <rect x="478" y="100" width="150" height="52" rx="8" fill="#f1f5f9" stroke="#475569"/>
    <text x="553" y="126" text-anchor="middle">JFrog Xray</text>
    <text x="553" y="143" text-anchor="middle" font-size="11" font-weight="400" fill="#64748b">artifacts / CVEs</text>

    <rect x="668" y="100" width="220" height="52" rx="8" fill="#e8f0ff" stroke="#3b6fe0"/>
    <text x="778" y="126" text-anchor="middle" fill="#1d4ed8">OpenHack</text>
    <text x="778" y="143" text-anchor="middle" font-size="11" font-weight="400" fill="#3b6fe0">whitebox · built-in · ×N passes</text>
  </g>

  <!-- source arrows into intake bar -->
  <g stroke="#94a3b8" stroke-width="2" fill="none" marker-end="url(#ah)">
    <path d="M148,152 L148,194"/>
    <path d="M363,152 L363,194"/>
    <path d="M553,152 L553,194"/>
    <path d="M778,152 L778,194"/>
  </g>

  <!-- PIPELINE panel -->
  <rect x="40" y="180" width="920" height="264" rx="12" fill="#f8fafc" stroke="#cbd5e1"/>
  <text x="56" y="202" font-size="11" font-weight="700" letter-spacing="1" fill="#94a3b8">PIPELINE</text>

  <!-- intake bar -->
  <rect x="64" y="196" width="872" height="42" rx="8" fill="#eef2f7" stroke="#64748b"/>
  <text x="500" y="222" text-anchor="middle" font-size="14" font-weight="600" fill="#0f172a">Ingest &amp; Normalize  →  canonical Finding</text>

  <!-- Row A -->
  <g font-size="13.5" font-weight="600" fill="#0f172a">
    <rect x="64" y="262" width="270" height="58" rx="8" fill="#eef2f7" stroke="#64748b"/>
    <text x="199" y="286" text-anchor="middle">Deterministic dedup</text>
    <text x="199" y="304" text-anchor="middle" font-size="11" font-weight="400" fill="#64748b">fingerprint merge</text>

    <rect x="350" y="262" width="270" height="58" rx="8" fill="#e8f0ff" stroke="#3b6fe0"/>
    <text x="485" y="286" text-anchor="middle" fill="#1d4ed8">Semantic dedup</text>
    <text x="485" y="304" text-anchor="middle" font-size="11" font-weight="400" fill="#3b6fe0">AI · Haiku 4.5</text>

    <rect x="636" y="262" width="270" height="58" rx="8" fill="#eef2f7" stroke="#64748b"/>
    <text x="771" y="286" text-anchor="middle">Enrich (pluggable)</text>
    <text x="771" y="304" text-anchor="middle" font-size="11" font-weight="400" fill="#64748b">KEV · EPSS · reach · AI</text>
  </g>

  <!-- Row B -->
  <g font-size="13.5" font-weight="600" fill="#0f172a">
    <rect x="64" y="352" width="270" height="58" rx="8" fill="#e8f0ff" stroke="#3b6fe0"/>
    <text x="199" y="376" text-anchor="middle" fill="#1d4ed8">Exploitability + chaining</text>
    <text x="199" y="394" text-anchor="middle" font-size="11" font-weight="400" fill="#3b6fe0">AI · Opus 4.8 / Fable 5</text>

    <rect x="350" y="352" width="270" height="58" rx="8" fill="#eef2f7" stroke="#64748b"/>
    <text x="485" y="376" text-anchor="middle">Composite score</text>
    <text x="485" y="394" text-anchor="middle" font-size="11" font-weight="400" fill="#64748b">severity·exploit·exposure·chain</text>

    <rect x="636" y="352" width="270" height="58" rx="8" fill="#eef2f7" stroke="#64748b"/>
    <text x="771" y="376" text-anchor="middle">Validation states</text>
    <text x="771" y="394" text-anchor="middle" font-size="11" font-weight="400" fill="#64748b">proposed · analyst-confirmed</text>
  </g>

  <!-- intra-row arrows -->
  <g stroke="#94a3b8" stroke-width="2" fill="none" marker-end="url(#ah)">
    <path d="M334,291 L350,291"/>
    <path d="M620,291 L636,291"/>
    <path d="M334,381 L350,381"/>
    <path d="M620,381 L636,381"/>
    <!-- intake to Row A -->
    <path d="M199,238 L199,262"/>
    <!-- Enrich (Row A) down and back to Exploitability (Row B) -->
    <path d="M771,320 L771,336 L199,336 L199,352"/>
  </g>

  <!-- AI-stage note -->
  <text x="500" y="432" text-anchor="middle" font-size="10.5" fill="#3b6fe0">AI stages run concurrently (bounded) · models auto-route by difficulty when enabled (Haiku↔Sonnet↔Opus↔Fable)</text>

  <!-- OUTPUTS -->
  <text x="40" y="480" font-size="11" font-weight="700" letter-spacing="1" fill="#94a3b8">OUTPUTS</text>
  <g font-size="13.5" font-weight="600" fill="#0f172a">
    <rect x="70" y="490" width="190" height="58" rx="8" fill="#f1f5f9" stroke="#475569"/>
    <text x="165" y="514" text-anchor="middle">ServiceNow VR</text>
    <text x="165" y="532" text-anchor="middle" font-size="11" font-weight="400" fill="#64748b">JSON / CSV · idempotent</text>

    <rect x="285" y="490" width="140" height="58" rx="8" fill="#f1f5f9" stroke="#475569"/>
    <text x="355" y="514" text-anchor="middle">Web UI / API</text>
    <text x="355" y="532" text-anchor="middle" font-size="11" font-weight="400" fill="#64748b">analyst triage</text>

    <rect x="445" y="490" width="135" height="58" rx="8" fill="#eef2f7" stroke="#64748b"/>
    <text x="512" y="514" text-anchor="middle">State store</text>
    <text x="512" y="532" text-anchor="middle" font-size="11" font-weight="400" fill="#64748b">persisted decisions</text>

    <rect x="690" y="490" width="220" height="58" rx="8" fill="#e8f0ff" stroke="#3b6fe0"/>
    <text x="800" y="514" text-anchor="middle" fill="#1d4ed8">Threat models</text>
    <text x="800" y="532" text-anchor="middle" font-size="11" font-weight="400" fill="#3b6fe0">STRIDE · per-service (AI)</text>
  </g>

  <!-- validation -> outputs -->
  <g stroke="#94a3b8" stroke-width="2" fill="none" marker-end="url(#ah)">
    <path d="M730,410 L175,486"/>
    <path d="M752,410 L360,486"/>
    <path d="M788,410 L800,486"/>
  </g>
  <!-- feedback loop: UI -> store -> validation (dashed) -->
  <g stroke="#3b6fe0" stroke-width="1.8" fill="none" stroke-dasharray="5 4" marker-end="url(#ahb)">
    <path d="M425,517 L443,517"/>
    <path d="M512,490 L512,442 L702,414"/>
  </g>
  <text x="520" y="470" font-size="10.5" fill="#3b6fe0">state changes</text>

  <!-- LEGEND -->
  <g font-size="12" fill="#334155">
    <rect x="40" y="600" width="16" height="16" rx="3" fill="#eef2f7" stroke="#64748b"/>
    <text x="64" y="612">Deterministic — no API key required</text>
    <rect x="330" y="600" width="16" height="16" rx="3" fill="#e8f0ff" stroke="#3b6fe0"/>
    <text x="354" y="612">AI stage (LLM) — routed by provider + tier (Anthropic / OpenAI / Google)</text>
    <path d="M700,608 L724,608" stroke="#3b6fe0" stroke-width="1.8" stroke-dasharray="5 4" fill="none" marker-end="url(#ahb)"/>
    <text x="732" y="612">analyst feedback (persistent)</text>
  </g>

  <defs>
    <marker id="ah" markerWidth="9" markerHeight="9" refX="7" refY="3" orient="auto" markerUnits="strokeWidth">
      <path d="M0,0 L7,3 L0,6 Z" fill="#94a3b8"/>
    </marker>
    <marker id="ahb" markerWidth="9" markerHeight="9" refX="7" refY="3" orient="auto" markerUnits="strokeWidth">
      <path d="M0,0 L7,3 L0,6 Z" fill="#3b6fe0"/>
    </marker>
  </defs>
</svg>
